<svg width="18" height="20" viewBox="0 0 18 20" fill="none" xmlns="http://www.w3.org/2000/svg">
<path d="M15.0383 5.52347H2.33485C2.19742 5.51179 2.06124 5.5572 1.95826 5.64899C1.85701 5.74625 1.81011 5.88704 1.83274 6.02558L3.13821 17.3984C3.29131 18.6522 4.3605 19.5919 5.62364 19.5826H11.9502C13.2489 19.6011 14.3429 18.6165 14.4608 17.3231L15.5403 5.97537C15.547 5.85365 15.5013 5.73486 15.4148 5.64899C15.3119 5.5572 15.1757 5.51179 15.0383 5.52347ZM13.4566 17.2729C13.3777 18.0374 12.7182 18.6089 11.9503 18.5783H5.62369C4.86954 18.6089 4.22129 18.0486 4.14244 17.298L2.88718 6.52769H14.4859L13.4566 17.2729Z" fill="#5465FF"/>
<path d="M16.871 2.25977H11.6992V1.45637C11.7271 0.680396 11.1206 0.0287895 10.3446 0.000918416C10.3192 5.39699e-06 10.2937 -0.000234871 10.2682 0.000245665H7.10487C6.32852 -0.0141224 5.68758 0.603559 5.67321 1.37991C5.67273 1.40538 5.67297 1.4309 5.67388 1.45637V2.25973H0.502112C0.224795 2.25973 0 2.48452 0 2.76184C0 3.03916 0.224795 3.26395 0.502112 3.26395H16.871C17.1483 3.26395 17.3731 3.03916 17.3731 2.76184C17.3731 2.48452 17.1482 2.25977 16.871 2.25977ZM10.695 1.45637V2.25973H6.67806V1.45637C6.64976 1.23633 6.80521 1.03503 7.02525 1.00673C7.05163 1.00332 7.0783 1.0026 7.10483 1.00447H10.2681C10.4894 0.988805 10.6816 1.15545 10.6972 1.37679C10.6991 1.40331 10.6984 1.42998 10.695 1.45637Z" fill="#5465FF"/>
</svg>
