<svg width="42" height="77" viewBox="0 0 42 77" fill="none" xmlns="http://www.w3.org/2000/svg">
<path d="M35.8235 0H6.17647C4.53893 0.00183913 2.96899 0.653163 1.81108 1.81108C0.653163 2.96899 0.00183913 4.53893 0 6.17647V70.4118C0.00183913 72.0493 0.653163 73.6192 1.81108 74.7772C2.96899 75.9351 4.53893 76.5864 6.17647 76.5882H35.8235C37.4611 76.5864 39.031 75.9351 40.1889 74.7772C41.3468 73.6192 41.9982 72.0493 42 70.4118V6.17647C41.9982 4.53893 41.3468 2.96899 40.1889 1.81108C39.031 0.653163 37.4611 0.00183913 35.8235 0ZM29.3756 2.47059L28.6344 6.17647H13.3657L12.6246 2.47059H29.3756ZM39.5294 70.4118C39.5283 71.3943 39.1375 72.3363 38.4428 73.031C37.748 73.7257 36.8061 74.1165 35.8235 74.1176H6.17647C5.19395 74.1165 4.25198 73.7257 3.55723 73.031C2.86248 72.3363 2.47169 71.3943 2.47059 70.4118V6.17647C2.47169 5.19395 2.86248 4.25198 3.55723 3.55723C4.25198 2.86249 5.19395 2.47169 6.17647 2.47059H10.1049L11.1416 7.65404C11.1976 7.93407 11.3489 8.18604 11.5697 8.36709C11.7906 8.54814 12.0674 8.64707 12.3529 8.64706H29.6471C29.9326 8.64707 30.2094 8.54814 30.4303 8.36709C30.6511 8.18604 30.8024 7.93407 30.8584 7.65404L31.8951 2.47059H35.8235C36.8061 2.47169 37.748 2.86249 38.4428 3.55723C39.1375 4.25198 39.5283 5.19395 39.5294 6.17647V70.4118Z" fill="white"/>
<path d="M13.5883 69.1765H6.17658C5.84896 69.1765 5.53476 69.3066 5.30309 69.5383C5.07143 69.77 4.94128 70.0842 4.94128 70.4118C4.94128 70.7394 5.07143 71.0536 5.30309 71.2853C5.53476 71.5169 5.84896 71.6471 6.17658 71.6471H13.5883C13.916 71.6471 14.2302 71.5169 14.4618 71.2853C14.6935 71.0536 14.8236 70.7394 14.8236 70.4118C14.8236 70.0842 14.6935 69.77 14.4618 69.5383C14.2302 69.3066 13.916 69.1765 13.5883 69.1765Z" fill="white"/>
<path d="M18.5293 69.1765H17.294C16.9664 69.1765 16.6522 69.3066 16.4205 69.5383C16.1889 69.77 16.0587 70.0842 16.0587 70.4118C16.0587 70.7394 16.1889 71.0536 16.4205 71.2853C16.6522 71.5169 16.9664 71.6471 17.294 71.6471H18.5293C18.8569 71.6471 19.1711 71.5169 19.4028 71.2853C19.6345 71.0536 19.7646 70.7394 19.7646 70.4118C19.7646 70.0842 19.6345 69.77 19.4028 69.5383C19.1711 69.3066 18.8569 69.1765 18.5293 69.1765Z" fill="white"/>
</svg>
