<svg width="241" height="57" viewBox="0 0 241 57" fill="none" xmlns="http://www.w3.org/2000/svg">
<path d="M45.352 24.528C47.5067 24.528 49.2133 25.168 50.472 26.448C51.752 27.7067 52.392 29.6053 52.392 32.144V42H47.4V32.912C47.4 31.5467 47.112 30.5333 46.536 29.872C45.9813 29.1893 45.1813 28.848 44.136 28.848C42.9627 28.848 42.0347 29.232 41.352 30C40.6693 30.7467 40.328 31.8667 40.328 33.36V42H35.336V32.912C35.336 30.2027 34.248 28.848 32.072 28.848C30.92 28.848 30.0027 29.232 29.32 30C28.6373 30.7467 28.296 31.8667 28.296 33.36V42H23.304V24.784H28.072V26.768C28.712 26.0427 29.4907 25.488 30.408 25.104C31.3467 24.72 32.3707 24.528 33.48 24.528C34.696 24.528 35.7947 24.7733 36.776 25.264C37.7573 25.7333 38.5467 26.4267 39.144 27.344C39.848 26.448 40.7333 25.7547 41.8 25.264C42.888 24.7733 44.072 24.528 45.352 24.528ZM73.642 24.784L65.866 43.056C65.0767 45.04 64.0953 46.4373 62.922 47.248C61.77 48.0587 60.3727 48.464 58.73 48.464C57.834 48.464 56.9487 48.3253 56.074 48.048C55.1993 47.7707 54.4847 47.3867 53.93 46.896L55.754 43.344C56.138 43.6853 56.5753 43.952 57.066 44.144C57.578 44.336 58.0793 44.432 58.57 44.432C59.2527 44.432 59.8073 44.2613 60.234 43.92C60.6607 43.6 61.0447 43.056 61.386 42.288L61.45 42.128L53.994 24.784H59.146L63.978 36.464L68.842 24.784H73.642ZM86.626 42.384C84.3433 42.384 82.274 41.8933 80.418 40.912C78.5833 39.9093 77.1327 38.5333 76.066 36.784C75.0207 35.0133 74.498 33.0187 74.498 30.8C74.498 28.5813 75.0207 26.5973 76.066 24.848C77.1327 23.0773 78.5833 21.7013 80.418 20.72C82.274 19.7173 84.354 19.216 86.658 19.216C88.5993 19.216 90.3487 19.5573 91.906 20.24C93.4847 20.9227 94.8073 21.904 95.874 23.184L92.546 26.256C91.0313 24.5067 89.154 23.632 86.914 23.632C85.5273 23.632 84.29 23.9413 83.202 24.56C82.114 25.1573 81.2607 26 80.642 27.088C80.0447 28.176 79.746 29.4133 79.746 30.8C79.746 32.1867 80.0447 33.424 80.642 34.512C81.2607 35.6 82.114 36.4533 83.202 37.072C84.29 37.6693 85.5273 37.968 86.914 37.968C89.154 37.968 91.0313 37.0827 92.546 35.312L95.874 38.384C94.8073 39.6853 93.4847 40.6773 91.906 41.36C90.3273 42.0427 88.5673 42.384 86.626 42.384ZM106.621 42.256C104.808 42.256 103.176 41.8827 101.725 41.136C100.296 40.368 99.1757 39.312 98.365 37.968C97.5543 36.624 97.149 35.0987 97.149 33.392C97.149 31.6853 97.5543 30.16 98.365 28.816C99.1757 27.472 100.296 26.4267 101.725 25.68C103.176 24.912 104.808 24.528 106.621 24.528C108.434 24.528 110.056 24.912 111.485 25.68C112.914 26.4267 114.034 27.472 114.845 28.816C115.656 30.16 116.061 31.6853 116.061 33.392C116.061 35.0987 115.656 36.624 114.845 37.968C114.034 39.312 112.914 40.368 111.485 41.136C110.056 41.8827 108.434 42.256 106.621 42.256ZM106.621 38.16C107.901 38.16 108.946 37.7333 109.757 36.88C110.589 36.0053 111.005 34.8427 111.005 33.392C111.005 31.9413 110.589 30.7893 109.757 29.936C108.946 29.0613 107.901 28.624 106.621 28.624C105.341 28.624 104.285 29.0613 103.453 29.936C102.621 30.7893 102.205 31.9413 102.205 33.392C102.205 34.8427 102.621 36.0053 103.453 36.88C104.285 37.7333 105.341 38.16 106.621 38.16ZM129.862 24.528C131.995 24.528 133.712 25.168 135.014 26.448C136.336 27.728 136.998 29.6267 136.998 32.144V42H132.006V32.912C132.006 31.5467 131.707 30.5333 131.11 29.872C130.512 29.1893 129.648 28.848 128.518 28.848C127.259 28.848 126.256 29.2427 125.51 30.032C124.763 30.8 124.39 31.952 124.39 33.488V42H119.398V24.784H124.166V26.8C124.827 26.0747 125.648 25.52 126.63 25.136C127.611 24.7307 128.688 24.528 129.862 24.528ZM152.627 41.168C152.136 41.5307 151.528 41.808 150.803 42C150.099 42.1707 149.352 42.256 148.563 42.256C146.515 42.256 144.925 41.7333 143.795 40.688C142.685 39.6427 142.131 38.1067 142.131 36.08V29.008H139.475V25.168H142.131V20.976H147.123V25.168H151.411V29.008H147.123V36.016C147.123 36.7413 147.304 37.3067 147.667 37.712C148.051 38.096 148.584 38.288 149.267 38.288C150.056 38.288 150.728 38.0747 151.283 37.648L152.627 41.168ZM162.373 24.528C165.04 24.528 167.088 25.168 168.517 26.448C169.946 27.7067 170.661 29.616 170.661 32.176V42H165.989V39.856C165.05 41.456 163.301 42.256 160.741 42.256C159.418 42.256 158.266 42.032 157.285 41.584C156.325 41.136 155.589 40.5173 155.077 39.728C154.565 38.9387 154.309 38.0427 154.309 37.04C154.309 35.44 154.906 34.1813 156.101 33.264C157.317 32.3467 159.184 31.888 161.701 31.888H165.669C165.669 30.8 165.338 29.968 164.677 29.392C164.016 28.7947 163.024 28.496 161.701 28.496C160.784 28.496 159.877 28.6453 158.981 28.944C158.106 29.2213 157.36 29.6053 156.741 30.096L154.949 26.608C155.888 25.9467 157.008 25.4347 158.309 25.072C159.632 24.7093 160.986 24.528 162.373 24.528ZM161.989 38.896C162.842 38.896 163.6 38.704 164.261 38.32C164.922 37.9147 165.392 37.328 165.669 36.56V34.8H162.245C160.197 34.8 159.173 35.472 159.173 36.816C159.173 37.456 159.418 37.968 159.909 38.352C160.421 38.7147 161.114 38.896 161.989 38.896ZM183.687 42.256C181.852 42.256 180.199 41.8827 178.727 41.136C177.276 40.368 176.135 39.312 175.303 37.968C174.492 36.624 174.087 35.0987 174.087 33.392C174.087 31.6853 174.492 30.16 175.303 28.816C176.135 27.472 177.276 26.4267 178.727 25.68C180.199 24.912 181.852 24.528 183.687 24.528C185.5 24.528 187.079 24.912 188.423 25.68C189.788 26.4267 190.78 27.504 191.399 28.912L187.527 30.992C186.631 29.4133 185.34 28.624 183.655 28.624C182.353 28.624 181.276 29.0507 180.423 29.904C179.569 30.7573 179.143 31.92 179.143 33.392C179.143 34.864 179.569 36.0267 180.423 36.88C181.276 37.7333 182.353 38.16 183.655 38.16C185.361 38.16 186.652 37.3707 187.527 35.792L191.399 37.904C190.78 39.2693 189.788 40.336 188.423 41.104C187.079 41.872 185.5 42.256 183.687 42.256ZM205.627 41.168C205.136 41.5307 204.528 41.808 203.803 42C203.099 42.1707 202.352 42.256 201.563 42.256C199.515 42.256 197.925 41.7333 196.795 40.688C195.685 39.6427 195.131 38.1067 195.131 36.08V29.008H192.475V25.168H195.131V20.976H200.123V25.168H204.411V29.008H200.123V36.016C200.123 36.7413 200.304 37.3067 200.667 37.712C201.051 38.096 201.584 38.288 202.267 38.288C203.056 38.288 203.728 38.0747 204.283 37.648L205.627 41.168ZM214.221 42.256C212.792 42.256 211.394 42.0853 210.029 41.744C208.664 41.3813 207.576 40.9333 206.765 40.4L208.429 36.816C209.197 37.3067 210.125 37.712 211.213 38.032C212.301 38.3307 213.368 38.48 214.413 38.48C216.525 38.48 217.581 37.9573 217.581 36.912C217.581 36.4213 217.293 36.0693 216.717 35.856C216.141 35.6427 215.256 35.4613 214.061 35.312C212.653 35.0987 211.49 34.8533 210.573 34.576C209.656 34.2987 208.856 33.808 208.173 33.104C207.512 32.4 207.181 31.3973 207.181 30.096C207.181 29.008 207.49 28.048 208.109 27.216C208.749 26.3627 209.666 25.7013 210.861 25.232C212.077 24.7627 213.506 24.528 215.149 24.528C216.365 24.528 217.57 24.6667 218.765 24.944C219.981 25.2 220.984 25.5627 221.773 26.032L220.109 29.584C218.594 28.7307 216.941 28.304 215.149 28.304C214.082 28.304 213.282 28.4533 212.749 28.752C212.216 29.0507 211.949 29.4347 211.949 29.904C211.949 30.4373 212.237 30.8107 212.813 31.024C213.389 31.2373 214.306 31.44 215.565 31.632C216.973 31.8667 218.125 32.1227 219.021 32.4C219.917 32.656 220.696 33.136 221.357 33.84C222.018 34.544 222.349 35.5253 222.349 36.784C222.349 37.8507 222.029 38.8 221.389 39.632C220.749 40.464 219.81 41.1147 218.573 41.584C217.357 42.032 215.906 42.256 214.221 42.256Z" fill="#5465FF"/>
<path d="M37.1531 6.19232L18.0619 1.07683C17.0071 0.795468 15.8837 0.944001 14.9383 1.48985C13.9929 2.03569 13.3025 2.93427 13.0188 3.98845L1.93526 45.3528C1.6539 46.4076 1.80243 47.531 2.34828 48.4764C2.89412 49.4218 3.7927 50.1121 4.84688 50.3959L23.9381 55.5114C24.9929 55.7927 26.1163 55.6442 27.0617 55.0983C28.0071 54.5525 28.6975 53.6539 28.9812 52.5997L40.0647 11.2354C40.3461 10.1806 40.1976 9.05723 39.6517 8.11179C39.1059 7.16636 38.2073 6.47605 37.1531 6.19232V6.19232ZM32.5747 6.67069L31.458 8.92921L21.6257 6.29465L21.7878 3.78036L32.5747 6.67069ZM27.3902 52.1734C27.22 52.806 26.8058 53.3451 26.2386 53.6726C25.6713 54.0001 24.9973 54.0892 24.3644 53.9204L5.27317 48.8049C4.64066 48.6347 4.10151 48.2205 3.77401 47.6532C3.4465 47.086 3.35738 46.412 3.5262 45.7791L14.6097 4.41474C14.78 3.78223 15.1942 3.24309 15.7614 2.91558C16.3287 2.58807 17.0027 2.49895 17.6356 2.66777L20.1653 3.3456L19.9385 6.86237C19.9262 7.05236 19.9802 7.24072 20.0912 7.39542C20.2022 7.55011 20.3633 7.66157 20.5472 7.71084L31.6838 10.6949C31.8677 10.7442 32.0629 10.7282 32.2364 10.6497C32.4099 10.5712 32.5508 10.4351 32.6352 10.2644L34.1971 7.10542L36.7268 7.78325C37.3593 7.95349 37.8985 8.36768 38.226 8.93494C38.5535 9.5022 38.6426 10.1762 38.4738 10.8091L27.3902 52.1734Z" fill="#5465FF"/>
<path d="M10.8986 46.9019L6.12576 45.623C5.91479 45.5665 5.69 45.5961 5.50085 45.7053C5.3117 45.8145 5.17368 45.9943 5.11715 46.2053C5.06062 46.4163 5.09021 46.6411 5.19942 46.8302C5.30862 47.0194 5.4885 47.1574 5.69947 47.2139L10.4723 48.4928C10.6833 48.5493 10.908 48.5197 11.0972 48.4105C11.2863 48.3013 11.4244 48.1215 11.4809 47.9105C11.5374 47.6995 11.5078 47.4747 11.3986 47.2856C11.2894 47.0964 11.1095 46.9584 10.8986 46.9019Z" fill="#5465FF"/>
<path d="M14.0804 47.7545L13.285 47.5413C13.074 47.4848 12.8492 47.5144 12.6601 47.6236C12.4709 47.7328 12.3329 47.9127 12.2764 48.1237C12.2198 48.3346 12.2494 48.5594 12.3586 48.7486C12.4678 48.9377 12.6477 49.0757 12.8587 49.1323L13.6541 49.3454C13.8651 49.4019 14.0899 49.3723 14.2791 49.2631C14.4682 49.1539 14.6062 48.9741 14.6628 48.7631C14.7193 48.5521 14.6897 48.3273 14.5805 48.1382C14.4713 47.949 14.2914 47.811 14.0804 47.7545Z" fill="#5465FF"/>
</svg>
